<svg width="2000" height="1163" viewBox="0 0 2000 1163" fill="none" xmlns="http://www.w3.org/2000/svg">
<path d="M1876.41 639.206C1909.02 596.192 1933.64 559.18 1950.39 528.17C1983.5 468.401 2000 407.381 2000 345.236C2000 247.455 1964.51 165.553 1893.4 99.282C1822.92 33.1357 1735.57 0 1631.34 0C1505.62 0 1412.15 41.2633 1350.29 123.165C1279.06 47.3903 1178.08 0 1065.98 0C922.894 0 797.925 77.0248 729.942 191.937C712.572 158.176 688.953 127.291 658.835 99.282C588.228 33.1357 500.875 0 396.776 0C181.08 0 59.4851 120.539 31.867 361.492H203.574C220.32 224.697 286.428 156.3 402.024 156.3C457.261 156.3 503.749 174.306 541.24 210.318C578.73 246.329 597.476 291.094 597.476 344.361C597.476 381.373 583.354 423.136 555.236 469.526C541.365 493.284 521.245 522.669 494.501 557.68C468.383 592.691 435.766 634.205 396.776 682.095L0 1162.88H580.586L712.447 1000.7H342.039L519.745 790.38C569.108 732.111 609.848 681.72 641.84 639.331C669.083 603.32 690.827 571.559 706.948 543.925C763.559 676.468 891.277 771.249 1042.11 780.252L726.818 1163H936.391L1363.41 643.207C1383.4 619.7 1400.52 593.817 1414.52 566.058C1414.52 565.933 1414.65 565.682 1414.77 565.557C1419.15 556.93 1423.14 548.052 1426.89 539.049V538.799C1430.52 530.046 1433.77 521.168 1436.64 512.165C1436.77 511.54 1437.02 511.04 1437.27 510.54C1440.14 501.787 1442.64 492.784 1444.76 483.781C1445.14 482.531 1445.39 481.155 1445.64 479.78C1447.64 471.402 1449.39 462.774 1450.76 454.146C1450.76 453.396 1451.01 452.646 1451.14 451.896C1452.51 443.018 1453.51 433.89 1454.39 424.762C1454.51 422.761 1454.76 420.761 1454.89 418.635C1455.51 409.382 1456.01 400.129 1456.01 390.751C1456.01 363.117 1453.14 336.108 1447.64 310.1C1450.89 297.346 1454.76 285.217 1459.14 274.088C1476.26 230.699 1502.12 199.564 1536.49 180.183C1540.99 177.682 1545.74 175.307 1550.49 173.181C1575.23 162.302 1603.72 156.55 1636.47 156.55C1691.7 156.55 1738.19 174.556 1775.68 210.568C1813.17 246.58 1831.92 291.344 1831.92 344.611C1831.92 381.623 1817.92 423.386 1789.68 469.776C1775.81 493.534 1755.69 522.919 1728.94 557.93C1702.82 592.941 1670.21 634.455 1631.22 682.345L1234.44 1163H1815.02L1947.89 1000.82H1576.48L1754.19 790.505C1803.55 732.236 1844.29 681.845 1876.28 639.456L1876.41 639.206ZM837.416 390.501C837.416 264.46 939.89 161.802 1065.98 161.802C1160.21 161.802 1241.44 219.196 1276.31 300.972C1284.43 319.978 1289.8 340.235 1292.55 361.492C1293.8 370.995 1294.55 380.623 1294.55 390.501C1294.55 516.542 1192.08 619.2 1065.98 619.2C939.89 619.2 837.416 516.667 837.416 390.501Z" fill="white"/>
</svg>
